<svg width="300" height="259" viewBox="0 0 300 259" fill="none" xmlns="http://www.w3.org/2000/svg">
<path fill-rule="evenodd" clip-rule="evenodd" d="M0 88.0565C0 154.133 49.4728 192.249 91.594 224.702C95.9721 228.075 100.271 231.387 104.426 234.663C120 246.941 135 258.5 150 258.5V33.5094C82.5024 -36.6181 0 15.1124 0 88.0565Z" fill="#F23271"/>
<path d="M180 63.4892L150 33.5095V258.5C165 258.5 180 246.941 195.574 234.664C199.729 231.388 204.028 228.076 208.405 224.702C250.527 192.25 300 154.133 300 88.0565C300 21.1198 230.527 -27.9537 166.927 18.6068L195.908 47.5765C200.301 51.9691 200.303 59.0921 195.911 63.4862C191.517 67.8805 184.394 67.8818 180 63.4892Z" fill="#F2749D"/>
</svg>
